<?xml version="1.0" encoding="UTF-8" standalone="no"?>
<!-- Created with Inkscape (http://www.inkscape.org/) -->
<svg
   xmlns:dc="http://purl.org/dc/elements/1.1/"
   xmlns:cc="http://creativecommons.org/ns#"
   xmlns:rdf="http://www.w3.org/1999/02/22-rdf-syntax-ns#"
   xmlns:svg="http://www.w3.org/2000/svg"
   xmlns="http://www.w3.org/2000/svg"
   xmlns:sodipodi="http://sodipodi.sourceforge.net/DTD/sodipodi-0.dtd"
   xmlns:inkscape="http://www.inkscape.org/namespaces/inkscape"
   width="18343.094"
   height="981"
   id="svg2"
   sodipodi:version="0.32"
   inkscape:version="0.46"
   version="1.0"
   sodipodi:docname="unaccented_small_letters.svg"
   inkscape:output_extension="org.inkscape.output.svg.inkscape">
  <defs
     id="defs4">
    <inkscape:perspective
       sodipodi:type="inkscape:persp3d"
       inkscape:vp_x="0 : 526.18109 : 1"
       inkscape:vp_y="0 : 1000 : 0"
       inkscape:vp_z="744.09448 : 526.18109 : 1"
       inkscape:persp3d-origin="372.04724 : 350.78739 : 1"
       id="perspective10" />
  </defs>
  <sodipodi:namedview
     id="base"
     pagecolor="#ffffff"
     bordercolor="#666666"
     borderopacity="1.0"
     gridtolerance="10000"
     guidetolerance="10"
     objecttolerance="10"
     inkscape:pageopacity="0.0"
     inkscape:pageshadow="2"
     inkscape:zoom="0.35"
     inkscape:cx="500.9764"
     inkscape:cy="487.02803"
     inkscape:document-units="px"
     inkscape:current-layer="layer1"
     showgrid="false"
     inkscape:window-width="1149"
     inkscape:window-height="722"
     inkscape:window-x="0"
     inkscape:window-y="49" />
  <metadata
     id="metadata7">
    <rdf:RDF>
      <cc:Work
         rdf:about="">
        <dc:format>image/svg+xml</dc:format>
        <dc:type
           rdf:resource="http://purl.org/dc/dcmitype/StillImage" />
      </cc:Work>
    </rdf:RDF>
  </metadata>
  <g
     inkscape:label="Layer 1"
     inkscape:groupmode="layer"
     id="layer1"
     transform="translate(-107,-272.36218)">
    <path
       style="font-size:1000px;font-style:normal;font-variant:normal;font-weight:normal;font-stretch:normal;fill:#000000;fill-opacity:1;stroke:none;stroke-width:1px;stroke-linecap:butt;stroke-linejoin:miter;stroke-opacity:1;font-family:OCRA;-inkscape-font-specification:OCRA"
       d="M 242,514.36218 L 342,514.36218 C 409.33292,514.36272 447.99955,515.69605 458,518.36218 C 501.9995,529.02937 533.66613,555.02935 553,596.36218 C 559.66611,611.02929 563.99944,626.02928 566,641.36218 C 565.99943,645.36259 567.6661,688.02921 571,769.36218 L 577,948.36218 L 578,1010.3622 C 576.66609,1021.6955 571.6661,1031.3622 563,1039.3622 C 546.33279,1055.3622 527.99947,1057.6955 508,1046.3622 C 495.9995,1039.6955 487.99951,1029.3622 484,1015.3622 C 483.33285,1012.6956 482.99952,1010.6956 483,1009.3622 C 482.99952,1009.3622 482.99952,1008.3622 483,1006.3622 L 448,1026.3622 C 421.33291,1041.6955 405.66626,1050.0289 401,1051.3622 C 398.33294,1052.0288 369.99963,1052.3622 316,1052.3622 C 258.66641,1052.3622 224.66644,1051.0289 214,1048.3622 C 187.99981,1041.6955 165.6665,1028.6955 147,1009.3622 C 124.99988,986.69558 111.99989,959.36228 108,927.36218 C 107.33323,921.36231 106.99989,906.69566 107,883.36218 C 106.99989,860.02904 107.33323,845.36239 108,839.36218 C 111.99989,808.02909 124.99988,781.02912 147,758.36218 C 168.33316,735.69583 194.99981,721.69585 227,716.36218 L 235,715.36218 L 340,715.36218 L 445,715.36218 L 453,716.36218 C 458.33288,717.69585 462.99954,718.69585 467,719.36218 L 473,720.36218 L 472,686.36218 C 470.6662,663.6959 469.99953,650.69592 470,647.36218 C 466.6662,630.02927 456.33288,618.36262 439,612.36218 L 433,610.36218 L 336,609.36218 C 269.99973,609.36263 233.66643,607.69596 227,604.36218 C 214.99979,598.36264 206.66646,588.36265 202,574.36218 C 201.33313,571.696 200.9998,567.36267 201,561.36218 C 200.9998,556.02935 201.33313,551.69602 202,548.36218 C 203.9998,542.36269 206.99979,536.69603 211,531.36218 C 218.99978,522.02938 229.3331,516.36272 242,514.36218 M 446,813.36218 L 440,811.36218 L 342,811.36218 L 241,811.36218 C 238.99976,812.02909 236.3331,812.69576 233,813.36218 C 218.33311,818.69575 208.66646,829.02907 204,844.36218 L 203,849.36218 L 203,883.36218 L 203,918.36218 L 204,922.36218 C 209.33312,939.02896 219.99978,950.02895 236,955.36218 C 238.66643,956.02895 262.6664,956.36228 308,956.36218 L 377,956.36218 L 428,927.36218 C 461.33287,908.02899 478.33285,898.029 479,897.36218 L 478,873.36218 C 477.33286,857.36238 476.66619,847.69572 476,844.36218 C 473.33286,835.02907 468.33286,827.36241 461,821.36218 C 456.33288,818.02908 451.33288,815.36242 446,813.36218 M 860.84375,313.36218 L 881.84375,314.36218 C 883.84358,315.02959 886.84358,316.02959 890.84375,317.36218 C 900.1769,322.02958 907.17689,329.36291 911.84375,339.36218 C 915.17688,345.36289 916.84355,359.69621 916.84375,382.36218 L 916.84375,465.36218 L 917.84375,578.36218 L 936.84375,562.36218 C 952.84351,548.36269 964.17683,539.02936 970.84375,534.36218 C 984.84348,526.36271 999.51013,520.69605 1014.8438,517.36218 C 1025.5101,514.69605 1047.5101,513.36272 1080.8438,513.36218 C 1114.1767,513.36272 1135.8433,514.69605 1145.8438,517.36218 C 1166.51,521.36271 1185.5099,530.02937 1202.8438,543.36218 C 1223.5099,558.69601 1240.5099,573.36266 1253.8438,587.36218 C 1271.1765,605.36263 1282.8432,626.36261 1288.8438,650.36218 C 1292.1765,661.69591 1293.8432,691.69588 1293.8438,740.36218 L 1293.8438,780.36218 L 1292.8438,898.36218 C 1288.8432,929.69564 1276.1765,956.36228 1254.8438,978.36218 C 1246.8432,986.36225 1230.8432,1000.3622 1206.8438,1020.3622 C 1185.5099,1037.6955 1160.8433,1048.0289 1132.8438,1051.3622 L 1029.8438,1051.3622 C 1013.1768,1049.3622 997.51013,1044.6955 982.84375,1037.3622 C 971.51016,1032.0289 954.17684,1019.3622 930.84375,999.36218 L 917.84375,988.36218 L 916.84375,1000.3622 C 916.84355,1011.0289 915.17688,1019.3622 911.84375,1025.3622 C 907.17689,1035.3622 900.1769,1042.6955 890.84375,1047.3622 C 881.51025,1051.3622 872.51026,1053.0288 863.84375,1052.3622 C 860.51027,1051.6955 856.84361,1050.6955 852.84375,1049.3622 C 846.84362,1047.3622 841.17696,1043.6955 835.84375,1038.3622 C 828.5103,1031.0289 823.84364,1022.3622 821.84375,1012.3622 L 821.84375,352.36218 C 823.84364,343.02956 828.5103,334.69623 835.84375,327.36218 C 843.17696,320.02958 851.51028,315.36292 860.84375,313.36218 M 1128.8438,611.36218 C 1126.1767,610.69596 1110.8434,610.02929 1082.8438,609.36218 L 1037.8438,610.36218 C 1030.5101,611.69596 1024.1768,614.36262 1018.8438,618.36218 C 1016.8434,619.69595 1001.5101,632.69594 972.84375,657.36218 C 944.17685,681.36255 928.84354,694.69587 926.84375,697.36218 C 923.51021,702.0292 920.84354,707.36253 918.84375,713.36218 L 917.84375,717.36218 L 917.84375,782.36218 C 917.84355,825.69574 918.17688,848.69572 918.84375,851.36218 C 920.17688,858.02904 922.84354,864.02904 926.84375,869.36218 C 928.84354,871.36236 944.17685,884.69568 972.84375,909.36218 C 1002.1768,934.02897 1017.5101,947.02895 1018.8438,948.36218 C 1022.8434,951.02895 1027.5101,953.36228 1032.8438,955.36218 C 1036.1768,956.02895 1052.1767,956.36228 1080.8438,956.36218 L 1124.8438,956.36218 L 1129.8438,955.36218 C 1136.51,953.36228 1147.8433,945.36229 1163.8438,931.36218 C 1181.8433,916.02899 1192.5099,904.029 1195.8438,895.36218 L 1197.8438,889.36218 L 1197.8438,783.36218 C 1197.8433,713.36252 1197.5099,677.02922 1196.8438,674.36218 C 1194.8433,668.36257 1192.1766,663.02924 1188.8438,658.36218 C 1186.8433,655.69591 1179.51,649.02925 1166.8438,638.36218 C 1154.1766,627.69594 1146.8433,621.36261 1144.8438,619.36218 C 1140.1767,615.36262 1134.8433,612.69596 1128.8438,611.36218 M 1743.6875,514.36218 L 1968.6875,514.36218 C 1989.3536,518.36272 2002.0203,530.3627 2006.6875,550.36218 C 2007.3536,554.36268 2007.6869,558.02934 2007.6875,561.36218 C 2007.6869,581.36265 1998.0203,596.02931 1978.6875,605.36218 C 1973.3536,608.02929 1948.3536,609.36263 1903.6875,609.36218 L 1859.6875,609.36218 L 1751.6875,610.36218 L 1747.6875,611.36218 C 1742.3539,612.69596 1737.6872,615.02929 1733.6875,618.36218 C 1731.6872,619.69595 1716.3539,632.69594 1687.6875,657.36218 C 1659.0206,681.36255 1643.6873,694.69587 1641.6875,697.36218 C 1638.354,702.0292 1635.6873,707.36253 1633.6875,713.36218 L 1632.6875,717.36218 L 1632.6875,782.36218 C 1632.6873,825.69574 1633.0206,848.69572 1633.6875,851.36218 C 1635.0206,858.02904 1637.6873,864.02904 1641.6875,869.36218 C 1643.6873,871.36236 1659.0206,884.69568 1687.6875,909.36218 C 1716.3539,934.02897 1731.6872,947.02895 1733.6875,948.36218 C 1737.6872,951.02895 1742.3539,953.36228 1747.6875,955.36218 C 1750.3538,956.02895 1787.6871,956.36228 1859.6875,956.36218 C 1933.687,957.02894 1973.3536,958.36228 1978.6875,960.36218 C 1997.3536,967.6956 2007.0203,982.36225 2007.6875,1004.3622 C 2007.6869,1025.0289 1998.3536,1039.6955 1979.6875,1048.3622 C 1976.3536,1049.6955 1972.687,1050.6955 1968.6875,1051.3622 L 1744.6875,1051.3622 C 1718.6872,1048.6955 1695.6872,1039.6955 1675.6875,1024.3622 L 1578.6875,941.36218 C 1559.354,922.69565 1546.6874,900.36233 1540.6875,874.36218 C 1538.0207,863.6957 1536.6874,834.3624 1536.6875,786.36218 L 1537.6875,708.36218 C 1541.6874,677.02922 1554.354,650.02925 1575.6875,627.36218 L 1674.6875,542.36218 C 1694.6872,527.02937 1717.6872,517.69605 1743.6875,514.36218 M 2666.5312,313.36218 L 2687.5312,314.36218 C 2694.1974,315.69625 2700.1974,318.69625 2705.5312,323.36218 C 2713.5307,330.02957 2719.1973,338.3629 2722.5312,348.36218 C 2723.1973,351.02955 2723.5307,462.36277 2723.5312,682.36218 C 2723.5307,902.36233 2723.1973,1013.6956 2722.5312,1016.3622 C 2721.1973,1019.0289 2719.864,1022.0289 2718.5312,1025.3622 C 2713.864,1035.3622 2706.5307,1042.6955 2696.5312,1047.3622 C 2687.864,1051.3622 2678.864,1053.0288 2669.5312,1052.3622 C 2666.1974,1051.6955 2662.8641,1050.6955 2659.5312,1049.3622 C 2653.5307,1047.3622 2647.8641,1043.6955 2642.5312,1038.3622 C 2632.5308,1028.3622 2627.5308,1015.0289 2627.5312,998.36218 C 2627.5308,992.36224 2627.5308,989.02891 2627.5312,988.36218 C 2627.5308,988.36225 2621.1974,993.36224 2608.5312,1003.3622 C 2595.8641,1014.0289 2588.5308,1020.3622 2586.5312,1022.3622 C 2565.8642,1038.3622 2541.8642,1048.0289 2514.5312,1051.3622 L 2412.5312,1051.3622 C 2385.1977,1048.0289 2361.1977,1038.3622 2340.5312,1022.3622 C 2318.5311,1005.0289 2301.8644,990.36224 2290.5312,978.36218 C 2268.5311,955.69561 2255.5311,928.02897 2251.5312,895.36218 L 2252.5312,670.36218 C 2256.5311,637.69593 2269.1978,610.02929 2290.5312,587.36218 C 2301.8644,575.36266 2318.5311,560.69601 2340.5312,543.36218 C 2357.8644,530.02937 2376.8644,521.36271 2397.5312,517.36218 C 2408.1977,514.69605 2430.1976,513.36272 2463.5312,513.36218 C 2492.8642,513.36272 2510.5309,514.02939 2516.5312,515.36218 C 2542.5309,518.69605 2565.5308,527.69604 2585.5312,542.36218 C 2588.8641,545.02936 2596.5308,551.69602 2608.5312,562.36218 L 2627.5312,578.36218 L 2627.5312,465.36218 C 2627.5308,390.02951 2627.8641,351.36288 2628.5312,349.36218 C 2631.8641,340.02956 2636.8641,332.3629 2643.5312,326.36218 C 2650.1974,319.69625 2657.8641,315.36292 2666.5312,313.36218 M 2507.5312,610.36218 L 2418.5312,610.36218 C 2410.531,611.69596 2397.8643,620.02928 2380.5312,635.36218 C 2364.531,649.36259 2354.8644,659.36258 2351.5312,665.36218 C 2348.8644,671.36256 2347.531,687.69588 2347.5312,714.36218 L 2347.5312,783.36218 C 2347.531,856.02905 2348.8644,895.02901 2351.5312,900.36218 C 2354.8644,907.02899 2364.531,917.02898 2380.5312,930.36218 C 2397.1977,945.02896 2408.8643,953.36228 2415.5312,955.36218 L 2420.5312,956.36218 L 2463.5312,956.36218 C 2494.8642,956.36228 2513.5309,954.69561 2519.5312,951.36218 C 2523.5309,950.02895 2536.8642,939.3623 2559.5312,919.36218 L 2602.5312,883.36218 C 2614.5308,872.6957 2622.1974,863.02904 2625.5312,854.36218 L 2627.5312,849.36218 L 2627.5312,783.36218 L 2627.5312,717.36218 L 2625.5312,713.36218 C 2623.5308,706.0292 2620.5308,700.0292 2616.5312,695.36218 L 2524.5312,617.36218 C 2519.1975,613.36262 2513.5309,611.02929 2507.5312,610.36218 M 3126.375,514.36218 C 3131.0414,514.36272 3156.0414,514.36272 3201.375,514.36218 C 3250.7079,513.69605 3279.0412,514.36272 3286.375,516.36218 C 3287.7079,516.36272 3289.7079,516.69605 3292.375,517.36218 C 3314.3745,522.02938 3334.0412,531.3627 3351.375,545.36218 C 3375.3745,565.36267 3391.0411,579.36266 3398.375,587.36218 C 3417.7078,607.36263 3430.0411,630.69594 3435.375,657.36218 C 3437.3744,667.36257 3438.3744,694.36254 3438.375,738.36218 C 3438.3744,740.36249 3438.3744,742.69583 3438.375,745.36218 C 3438.3744,791.36244 3436.7078,817.69575 3433.375,824.36218 C 3430.0411,831.02907 3425.7078,836.3624 3420.375,840.36218 C 3415.7078,844.36239 3409.7078,847.36239 3402.375,849.36218 C 3399.7078,850.02905 3342.3745,850.69572 3230.375,851.36218 L 3061.375,851.36218 L 3062.375,870.36218 C 3062.3748,885.02902 3063.7081,895.02901 3066.375,900.36218 C 3069.7081,907.02899 3079.3748,917.02898 3095.375,930.36218 C 3111.3747,944.36229 3122.7081,952.69562 3129.375,955.36218 L 3134.375,956.36218 L 3266.375,956.36218 C 3355.7078,957.02894 3403.0411,958.36228 3408.375,960.36218 C 3427.0411,967.6956 3436.7078,982.36225 3437.375,1004.3622 C 3437.3744,1025.6955 3427.7078,1040.3622 3408.375,1048.3622 L 3398.375,1051.3622 L 3127.375,1051.3622 C 3100.0414,1048.0289 3076.0415,1038.3622 3055.375,1022.3622 C 3033.3748,1005.0289 3016.7082,990.36224 3005.375,978.36218 C 2983.3749,955.69561 2970.7082,928.02897 2967.375,895.36218 C 2966.7082,890.69568 2966.3749,853.02905 2966.375,782.36218 C 2966.3749,712.36252 2966.7082,674.36256 2967.375,668.36218 C 2971.3749,637.02926 2984.0415,610.02929 3005.375,587.36218 C 3013.3748,579.36266 3029.3748,565.36267 3053.375,545.36218 C 3074.0415,528.02937 3098.3748,517.69605 3126.375,514.36218 M 3274.375,611.36218 L 3270.375,610.36218 L 3204.375,609.36218 C 3158.3747,609.36263 3132.7081,610.36262 3127.375,612.36218 C 3122.0414,614.36262 3111.7081,621.69595 3096.375,634.36218 C 3083.0414,645.69592 3075.0415,652.69592 3072.375,655.36218 C 3069.0415,660.02924 3066.3748,665.36257 3064.375,671.36218 L 3062.375,676.36218 L 3062.375,716.36218 L 3061.375,755.36218 L 3202.375,755.36218 L 3342.375,755.36218 L 3342.375,716.36218 C 3342.3745,688.36255 3340.7079,671.02923 3337.375,664.36218 C 3335.3745,661.02924 3333.3745,658.02924 3331.375,655.36218 C 3329.3745,652.69592 3321.7079,645.69592 3308.375,634.36218 C 3292.3746,621.02928 3281.0412,613.36262 3274.375,611.36218 M 3953.2188,313.36218 C 3955.2184,312.69626 3977.5517,312.36292 4020.2188,312.36218 C 4066.2183,312.36292 4092.2182,313.36292 4098.2188,315.36218 C 4103.5516,317.36292 4108.5515,320.69625 4113.2188,325.36218 C 4121.2182,333.3629 4126.2182,342.69623 4128.2188,353.36218 L 4128.2188,365.36218 C 4126.8849,376.69619 4122.2182,386.36285 4114.2188,394.36218 C 4108.8849,399.69617 4103.5516,403.36283 4098.2188,405.36218 C 4092.2182,407.36283 4067.2183,408.36283 4023.2188,408.36218 C 3982.5517,408.36283 3960.5517,408.69616 3957.2188,409.36218 C 3930.5517,412.69616 3911.5517,426.36281 3900.2188,450.36218 L 3897.2188,457.36218 C 3895.2184,464.6961 3893.8851,476.36276 3893.2188,492.36218 L 3893.2188,513.36218 L 3942.2188,513.36218 C 3974.885,513.36272 3992.5517,513.69605 3995.2188,514.36218 C 4015.885,518.36272 4028.5516,530.3627 4033.2188,550.36218 C 4033.885,554.36268 4034.2183,558.02934 4034.2188,561.36218 C 4034.2183,582.02932 4024.885,596.69597 4006.2188,605.36218 C 4002.885,606.69596 3999.2183,607.69596 3995.2188,608.36218 C 3992.5517,609.02929 3974.885,609.36263 3942.2188,609.36218 L 3893.2188,609.36218 L 3893.2188,811.36218 C 3893.2184,946.02896 3892.8851,1014.3622 3892.2188,1016.3622 C 3890.2184,1023.6955 3886.8851,1029.6955 3882.2188,1034.3622 C 3878.2184,1039.6955 3872.8851,1044.0289 3866.2188,1047.3622 C 3857.5518,1051.3622 3848.5518,1053.0288 3839.2188,1052.3622 C 3835.8852,1051.6955 3832.5518,1050.6955 3829.2188,1049.3622 C 3823.2185,1047.3622 3817.5518,1043.6955 3812.2188,1038.3622 C 3806.8852,1032.3622 3803.2185,1026.6955 3801.2188,1021.3622 C 3798.5519,1015.3622 3797.2185,967.6956 3797.2188,878.36218 C 3797.2185,898.36234 3797.2185,875.36236 3797.2188,809.36218 L 3797.2188,609.36218 L 3770.2188,609.36218 C 3750.2186,609.36263 3736.8853,607.69596 3730.2188,604.36218 C 3717.5519,598.36264 3709.2186,588.36265 3705.2188,574.36218 L 3704.2188,553.36218 C 3704.8853,552.02935 3705.2186,550.69602 3705.2188,549.36218 C 3709.2186,535.3627 3717.5519,525.36271 3730.2188,519.36218 C 3736.8853,516.02939 3750.2186,514.36272 3770.2188,514.36218 L 3797.2188,513.36218 L 3798.2188,489.36218 C 3798.2185,473.36276 3798.5519,462.69611 3799.2188,457.36218 C 3803.2185,433.3628 3811.2185,411.69616 3823.2188,392.36218 C 3837.2185,370.36286 3855.2185,352.36288 3877.2188,338.36218 C 3900.5518,323.69624 3925.8851,315.36292 3953.2188,313.36218 M 4556.0625,514.36218 C 4560.7289,514.36272 4577.7289,514.36272 4607.0625,514.36218 L 4661.0625,515.36218 C 4687.0621,518.69605 4710.0621,527.69604 4730.0625,542.36218 C 4733.3954,545.02936 4741.062,551.69602 4753.0625,562.36218 L 4772.0625,578.36218 L 4772.0625,566.36218 C 4772.7287,557.02934 4774.062,549.36269 4776.0625,543.36218 C 4779.3953,534.02937 4786.062,526.36271 4796.0625,520.36218 C 4801.3953,517.02938 4807.3953,515.02939 4814.0625,514.36218 C 4820.7286,513.69605 4827.3953,514.36272 4834.0625,516.36218 C 4837.3953,517.02938 4840.7286,518.36272 4844.0625,520.36218 C 4851.3953,524.36271 4857.0619,530.02937 4861.0625,537.36218 C 4861.0619,537.3627 4862.3953,540.02936 4865.0625,545.36218 C 4867.0619,550.69602 4868.0619,604.69596 4868.0625,707.36218 C 4868.0619,704.69586 4868.0619,743.69582 4868.0625,824.36218 C 4868.0619,1001.6956 4867.7286,1093.3621 4867.0625,1099.3622 C 4863.0619,1130.6954 4850.3953,1157.3621 4829.0625,1179.3622 C 4821.062,1188.0287 4805.062,1202.0287 4781.0625,1221.3622 C 4759.062,1239.362 4733.3954,1250.0287 4704.0625,1253.3622 L 4590.0625,1253.3622 L 4482.0625,1253.3622 L 4478.0625,1252.3622 C 4456.0623,1242.362 4444.3957,1226.6953 4443.0625,1205.3622 C 4443.0623,1184.0287 4453.3957,1169.3621 4474.0625,1161.3622 C 4474.0623,1161.3621 4475.3956,1160.6954 4478.0625,1159.3622 L 4482.0625,1158.3622 L 4591.0625,1157.3622 L 4700.0625,1157.3622 L 4704.0625,1156.3622 C 4710.7287,1154.3621 4722.0621,1146.3621 4738.0625,1132.3622 C 4756.062,1117.6955 4766.7287,1105.6955 4770.0625,1096.3622 L 4772.0625,1090.3622 L 4772.0625,1019.3622 L 4771.0625,948.36218 C 4771.062,948.36229 4765.062,953.36228 4753.0625,963.36218 C 4737.0621,976.69559 4726.7287,985.02892 4722.0625,988.36218 C 4703.3954,1000.3622 4682.3954,1008.0289 4659.0625,1011.3622 L 4557.0625,1011.3622 C 4529.7289,1008.0289 4505.7289,998.36224 4485.0625,982.36218 C 4463.0623,965.02894 4446.3957,950.36228 4435.0625,938.36218 C 4417.729,920.36231 4406.0624,899.029 4400.0625,874.36218 C 4397.3957,863.6957 4396.0624,833.02907 4396.0625,782.36218 C 4396.0624,775.02913 4396.0624,769.6958 4396.0625,766.36218 L 4396.0625,672.36218 C 4399.3957,639.02926 4412.3957,610.69596 4435.0625,587.36218 C 4446.3957,575.36266 4463.0623,560.69601 4485.0625,543.36218 C 4505.7289,527.36271 4529.3956,517.69605 4556.0625,514.36218 M 4652.0625,610.36218 L 4563.0625,610.36218 C 4555.0622,611.69596 4542.3956,620.02928 4525.0625,635.36218 C 4509.0623,649.36259 4499.3956,659.36258 4496.0625,665.36218 C 4493.3956,671.36256 4492.0623,687.69588 4492.0625,714.36218 C 4492.0623,717.02918 4492.0623,733.3625 4492.0625,763.36218 C 4492.0623,822.02908 4493.3956,854.36238 4496.0625,860.36218 C 4499.3956,866.36237 4509.0623,876.36236 4525.0625,890.36218 C 4541.7289,904.36233 4553.3956,912.36232 4560.0625,914.36218 L 4565.0625,916.36218 L 4608.0625,916.36218 C 4639.3955,916.36232 4658.3955,914.69565 4665.0625,911.36218 C 4668.3955,909.36233 4680.7288,899.36234 4702.0625,881.36218 L 4746.0625,843.36218 C 4758.7287,832.69574 4766.7287,823.02908 4770.0625,814.36218 L 4772.0625,808.36218 L 4772.0625,763.36218 L 4772.0625,717.36218 L 4770.0625,713.36218 C 4768.062,706.0292 4765.062,700.0292 4761.0625,695.36218 L 4669.0625,617.36218 C 4663.7288,613.36262 4658.0621,611.02929 4652.0625,610.36218 M 5149.9062,313.36218 L 5170.9062,314.36218 C 5172.9061,315.02959 5175.9061,316.02959 5179.9062,317.36218 C 5189.2394,322.02958 5196.2394,329.36291 5200.9062,339.36218 C 5204.2394,345.36289 5205.906,359.69621 5205.9062,382.36218 L 5205.9062,473.36218 L 5206.9062,594.36218 L 5253.9062,564.36218 C 5285.906,543.69602 5304.9059,531.69604 5310.9062,528.36218 C 5325.5726,521.02938 5341.5726,516.36272 5358.9062,514.36218 L 5447.9062,515.36218 L 5448.9062,515.36218 C 5480.9058,520.69605 5507.9057,534.69603 5529.9062,557.36218 C 5552.5724,580.69599 5565.9057,608.69596 5569.9062,641.36218 L 5581.9062,1002.3622 L 5580.9062,1016.3622 C 5575.5723,1035.0289 5563.5724,1046.6955 5544.9062,1051.3622 C 5540.9057,1052.0288 5536.5724,1052.3622 5531.9062,1052.3622 C 5509.9057,1051.0289 5495.2391,1038.6955 5487.9062,1015.3622 C 5487.2391,1012.6956 5484.9058,951.36228 5480.9062,831.36218 C 5476.9058,712.02919 5474.5724,650.69592 5473.9062,647.36218 C 5470.5724,630.02927 5460.2391,618.36262 5442.9062,612.36218 L 5436.9062,610.36218 L 5401.9062,610.36218 C 5375.9059,610.36262 5359.9059,611.69596 5353.9062,614.36218 C 5351.2392,615.69595 5325.9059,631.69594 5277.9062,662.36218 L 5206.9062,708.36218 L 5205.9062,860.36218 C 5205.906,964.36227 5204.2394,1019.3622 5200.9062,1025.3622 C 5196.2394,1035.3622 5189.2394,1042.6955 5179.9062,1047.3622 C 5170.5728,1051.3622 5161.5728,1053.0288 5152.9062,1052.3622 C 5149.5728,1051.6955 5145.9061,1050.6955 5141.9062,1049.3622 C 5135.9061,1047.3622 5130.2395,1043.6955 5124.9062,1038.3622 C 5117.5728,1031.0289 5112.9061,1022.3622 5110.9062,1012.3622 L 5110.9062,352.36218 C 5112.9061,343.02956 5117.5728,334.69623 5124.9062,327.36218 C 5132.2395,320.02958 5140.5728,315.36292 5149.9062,313.36218 M 5912.75,514.36218 L 5992.75,514.36218 C 6046.083,514.36272 6076.083,516.02939 6082.75,519.36218 C 6088.7496,522.02938 6094.083,526.02938 6098.75,531.36218 C 6102.7496,536.69603 6105.7496,542.69603 6107.75,549.36218 C 6108.4163,552.02935 6108.7496,620.69595 6108.75,755.36218 L 6108.75,956.36218 L 6159.75,956.36218 L 6210.75,957.36218 L 6214.75,958.36218 C 6228.7495,962.36227 6238.7495,970.6956 6244.75,983.36218 C 6248.0828,989.36225 6249.7495,996.36224 6249.75,1004.3622 C 6249.7495,1012.3622 6248.0828,1019.3622 6244.75,1025.3622 C 6238.7495,1038.0289 6228.7495,1046.3622 6214.75,1050.3622 L 6209.75,1052.3622 L 6060.75,1052.3622 L 5912.75,1052.3622 L 5907.75,1050.3622 C 5887.0832,1040.3622 5875.4165,1025.0289 5872.75,1004.3622 C 5872.7498,983.02892 5883.0832,968.02893 5903.75,959.36218 C 5905.0831,959.36228 5906.4165,959.02894 5907.75,958.36218 L 5911.75,957.36218 L 5962.75,956.36218 L 6013.75,956.36218 L 6013.75,783.36218 L 6013.75,609.36218 L 5962.75,609.36218 L 5911.75,609.36218 L 5907.75,607.36218 C 5887.0832,601.36263 5875.4165,588.02931 5872.75,567.36218 C 5872.0832,562.02934 5872.4165,556.36268 5873.75,550.36218 C 5878.4165,531.02937 5891.4165,519.02938 5912.75,514.36218 M 6005.75,273.36218 L 6039.75,272.36218 C 6061.7497,272.36296 6076.083,274.02963 6082.75,277.36218 C 6092.083,282.02962 6099.083,289.36295 6103.75,299.36218 C 6107.0829,306.0296 6108.7496,319.69625 6108.75,340.36218 C 6108.7496,361.02954 6107.0829,374.69619 6103.75,381.36218 C 6099.083,391.36284 6092.083,398.69617 6082.75,403.36218 C 6076.083,406.69616 6062.083,408.36283 6040.75,408.36218 L 6002.75,406.36218 C 6001.4164,406.36283 5999.7497,406.0295 5997.75,405.36218 C 5991.7497,403.36283 5986.0831,399.69617 5980.75,394.36218 C 5975.4164,388.36285 5971.7497,382.69619 5969.75,377.36218 C 5967.7498,371.36286 5966.7498,359.02954 5966.75,340.36218 C 5966.7498,321.69625 5967.7498,309.36293 5969.75,303.36218 C 5971.7497,297.36294 5975.4164,291.69628 5980.75,286.36218 C 5988.0831,279.69629 5996.4164,275.36296 6005.75,273.36218 M 6722.5938,514.36218 L 6824.5938,514.36218 C 6893.9266,514.36272 6931.9266,516.02939 6938.5938,519.36218 C 6950.5932,525.36271 6958.9266,535.3627 6963.5938,549.36218 C 6964.2599,552.02935 6964.5932,647.69592 6964.5938,836.36218 L 6963.5938,1129.3622 C 6959.5932,1160.6954 6946.5932,1187.6954 6924.5938,1210.3622 C 6903.2599,1232.362 6877.26,1246.0287 6846.5938,1251.3622 L 6838.5938,1253.3622 L 6780.5938,1253.3622 L 6707.5938,1252.3622 C 6706.2601,1251.6953 6704.2601,1251.0287 6701.5938,1250.3622 C 6683.5935,1247.0287 6666.9268,1240.362 6651.5938,1230.3622 C 6617.5936,1207.6954 6596.5936,1177.0287 6588.5938,1138.3622 C 6586.5936,1129.0288 6586.5936,1121.3621 6588.5938,1115.3622 C 6589.2603,1111.3621 6590.5936,1107.3621 6592.5938,1103.3622 C 6594.5936,1099.3621 6597.5936,1095.3621 6601.5938,1091.3622 C 6605.5936,1087.3621 6609.2602,1084.6955 6612.5938,1083.3622 C 6619.9269,1079.3622 6627.2602,1077.3622 6634.5938,1077.3622 C 6641.2602,1077.3622 6647.2602,1078.3622 6652.5938,1080.3622 C 6655.9269,1081.6955 6659.2602,1083.6955 6662.5938,1086.3622 C 6672.5935,1093.0288 6679.2602,1104.3621 6682.5938,1120.3622 C 6687.2602,1138.3621 6698.5935,1150.3621 6716.5938,1156.3622 L 6721.5938,1157.3622 L 6776.5938,1157.3622 L 6831.5938,1157.3622 L 6837.5938,1155.3622 C 6842.9267,1153.3621 6847.9267,1150.6954 6852.5938,1147.3622 C 6859.26,1142.0288 6864.26,1134.3621 6867.5938,1124.3622 L 6868.5938,1120.3622 L 6868.5938,865.36218 L 6869.5938,609.36218 L 6794.5938,609.36218 C 6743.2601,609.36263 6714.2601,607.69596 6707.5938,604.36218 C 6694.9268,598.36264 6686.5935,588.36265 6682.5938,574.36218 L 6681.5938,553.36218 C 6682.2602,552.02935 6682.5935,550.69602 6682.5938,549.36218 C 6685.9268,539.3627 6691.2602,531.02937 6698.5938,524.36218 C 6705.9268,519.02938 6713.9268,515.69605 6722.5938,514.36218 M 6861.5938,273.36218 L 6895.5938,272.36218 C 6917.5933,272.36296 6931.9266,274.02963 6938.5938,277.36218 C 6947.9266,282.02962 6954.9266,289.36295 6959.5938,299.36218 C 6962.9266,306.0296 6964.5932,319.69625 6964.5938,340.36218 C 6964.5932,361.02954 6962.9266,374.69619 6959.5938,381.36218 C 6954.9266,391.36284 6947.9266,398.69617 6938.5938,403.36218 C 6931.9266,406.69616 6917.9266,408.36283 6896.5938,408.36218 L 6858.5938,406.36218 L 6853.5938,405.36218 C 6847.5933,403.36283 6841.9267,399.69617 6836.5938,394.36218 C 6831.26,388.36285 6827.5934,382.69619 6825.5938,377.36218 C 6823.5934,371.36286 6822.5934,359.02954 6822.5938,340.36218 C 6822.5934,321.69625 6823.5934,309.36293 6825.5938,303.36218 C 6827.5934,297.36294 6831.26,291.69628 6836.5938,286.36218 C 6843.9267,279.69629 6852.26,275.36296 6861.5938,273.36218 M 7294.4375,313.36218 L 7315.4375,314.36218 C 7322.104,315.69625 7328.104,318.69625 7333.4375,323.36218 C 7340.7706,330.02957 7346.104,338.3629 7349.4375,348.36218 C 7350.104,351.02955 7350.4373,416.69615 7350.4375,545.36218 L 7351.4375,739.36218 L 7475.4375,632.36218 C 7558.7704,561.02934 7601.437,524.69604 7603.4375,523.36218 C 7608.1037,520.02938 7613.7704,517.36272 7620.4375,515.36218 L 7641.4375,514.36218 C 7642.1037,515.02939 7642.7703,515.36272 7643.4375,515.36218 C 7650.7703,517.36272 7656.7703,520.36271 7661.4375,524.36218 C 7677.437,537.02936 7683.1036,553.36268 7678.4375,573.36218 C 7676.437,580.69599 7672.7703,587.36265 7667.4375,593.36218 C 7666.1036,595.36264 7632.7703,624.02928 7567.4375,679.36218 L 7470.4375,763.36218 C 7470.4372,763.36247 7509.7705,797.0291 7588.4375,864.36218 C 7667.7703,931.69564 7708.7703,966.6956 7711.4375,969.36218 C 7721.4369,978.69559 7726.4369,990.36224 7726.4375,1004.3622 C 7726.4369,1009.0289 7726.1036,1013.0289 7725.4375,1016.3622 C 7720.1036,1036.3622 7707.4369,1048.0289 7687.4375,1051.3622 C 7673.437,1054.0288 7661.1037,1051.0289 7650.4375,1042.3622 L 7398.4375,827.36218 L 7396.4375,825.36218 L 7374.4375,845.36218 L 7351.4375,865.36218 L 7350.4375,939.36218 C 7350.4373,990.69558 7348.7706,1019.3622 7345.4375,1025.3622 C 7340.7706,1035.3622 7333.7706,1042.6955 7324.4375,1047.3622 C 7315.104,1051.3622 7306.104,1053.0288 7297.4375,1052.3622 C 7294.104,1051.6955 7290.4374,1050.6955 7286.4375,1049.3622 C 7280.4374,1047.3622 7274.7707,1043.6955 7269.4375,1038.3622 C 7262.1041,1031.0289 7257.4374,1022.3622 7255.4375,1012.3622 L 7255.4375,352.36218 C 7257.4374,343.02956 7262.1041,334.69623 7269.4375,327.36218 C 7276.7707,320.02958 7285.104,315.36292 7294.4375,313.36218 M 8057.2812,313.36218 L 8137.2812,312.36218 C 8190.6143,313.02959 8220.6142,314.69625 8227.2812,317.36218 C 8239.9475,324.02958 8248.2809,334.3629 8252.2812,348.36218 C 8252.9475,351.02955 8253.2809,453.02945 8253.2812,654.36218 L 8253.2812,956.36218 L 8304.2812,956.36218 L 8355.2812,957.36218 L 8359.2812,958.36218 C 8373.2807,962.36227 8383.2807,970.6956 8389.2812,983.36218 C 8392.6141,989.36225 8394.2807,996.36224 8394.2812,1004.3622 C 8394.2807,1012.3622 8392.6141,1019.3622 8389.2812,1025.3622 C 8383.2807,1038.0289 8373.2807,1046.3622 8359.2812,1050.3622 L 8354.2812,1052.3622 L 8205.2812,1052.3622 L 8057.2812,1052.3622 L 8052.2812,1050.3622 C 8031.6144,1040.3622 8019.9478,1025.0289 8017.2812,1004.3622 C 8017.2811,983.02892 8027.6144,968.02893 8048.2812,959.36218 C 8049.6144,959.36228 8050.9477,959.02894 8052.2812,958.36218 L 8056.2812,957.36218 L 8107.2812,956.36218 L 8158.2812,956.36218 L 8158.2812,682.36218 L 8158.2812,408.36218 L 8107.2812,408.36218 L 8056.2812,408.36218 L 8052.2812,406.36218 C 8031.6144,400.36283 8019.9478,387.02951 8017.2812,366.36218 C 8016.6144,360.36287 8016.9478,354.69621 8018.2812,349.36218 C 8022.9478,330.02957 8035.9477,318.02958 8057.2812,313.36218 M 8716.125,514.36218 C 8723.4582,513.02939 8730.4582,513.36272 8737.125,515.36218 C 8741.7915,516.69605 8745.7915,518.36272 8749.125,520.36218 C 8759.1248,526.36271 8765.7915,534.02937 8769.125,543.36218 C 8769.7915,544.69602 8770.1248,545.69602 8770.125,546.36218 L 8775.125,543.36218 C 8793.1248,527.36271 8814.1248,517.69605 8838.125,514.36218 C 8858.7914,511.69606 8878.7914,514.69605 8898.125,523.36218 C 8908.1247,527.36271 8917.458,533.02937 8926.125,540.36218 C 8932.1246,545.02936 8937.458,550.36268 8942.125,556.36218 L 8944.125,559.36218 L 8955.125,550.36218 C 8965.1246,541.02936 8972.4579,535.02937 8977.125,532.36218 C 8998.4579,518.36272 9021.4579,512.36272 9046.125,514.36218 C 9046.1245,514.36272 9048.1245,514.36272 9052.125,514.36218 C 9076.1245,517.69605 9097.1245,528.02937 9115.125,545.36218 C 9135.1244,564.696 9146.7911,588.36265 9150.125,616.36218 L 9164.125,1007.3622 C 9163.4577,1013.3622 9161.7911,1019.3622 9159.125,1025.3622 C 9154.4578,1035.3622 9147.1244,1042.6955 9137.125,1047.3622 C 9131.7911,1050.0289 9125.7911,1051.6955 9119.125,1052.3622 L 9101.125,1049.3622 C 9097.7911,1048.6955 9094.7912,1047.3622 9092.125,1045.3622 C 9084.7912,1041.3622 9079.1245,1035.6955 9075.125,1028.3622 C 9072.4578,1023.6955 9070.4578,1018.3622 9069.125,1012.3622 C 9068.4578,1009.6956 9066.1245,944.36229 9062.125,816.36218 C 9057.4579,689.02921 9054.7912,624.36261 9054.125,622.36218 C 9052.7912,617.69595 9049.7912,614.02929 9045.125,611.36218 L 9038.125,609.36218 C 9035.4579,610.02929 9033.4579,610.69596 9032.125,611.36218 C 9030.1245,612.02929 9019.1246,621.02928 8999.125,638.36218 L 8969.125,664.36218 L 8968.125,838.36218 L 8967.125,1016.3622 C 8965.1246,1023.6955 8962.1246,1029.6955 8958.125,1034.3622 C 8953.458,1039.6955 8948.1246,1044.0289 8942.125,1047.3622 C 8932.7913,1051.3622 8923.7913,1053.0288 8915.125,1052.3622 C 8911.7913,1051.6955 8908.1247,1050.6955 8904.125,1049.3622 C 8898.7913,1047.3622 8893.458,1044.0289 8888.125,1039.3622 C 8881.458,1033.3622 8876.7914,1025.3622 8874.125,1015.3622 C 8873.458,1013.3622 8873.1247,947.69562 8873.125,818.36218 L 8872.125,625.36218 L 8871.125,621.36218 C 8868.458,616.69595 8865.1247,613.36262 8861.125,611.36218 C 8858.4581,610.69596 8855.4581,610.36262 8852.125,610.36218 C 8848.1247,610.36262 8845.1247,611.02929 8843.125,612.36218 C 8840.4581,613.69595 8828.1248,624.02928 8806.125,643.36218 L 8773.125,671.36218 L 8773.125,842.36218 C 8772.4581,956.36228 8771.7915,1014.3622 8771.125,1016.3622 C 8769.1248,1023.6955 8766.1248,1029.6955 8762.125,1034.3622 C 8757.4582,1039.6955 8752.1248,1044.0289 8746.125,1047.3622 C 8736.7915,1051.3622 8727.7915,1053.0288 8719.125,1052.3622 C 8715.7915,1051.6955 8712.4582,1050.6955 8709.125,1049.3622 C 8703.1249,1047.3622 8697.1249,1043.6955 8691.125,1038.3622 C 8683.7916,1031.0289 8679.4582,1022.3622 8678.125,1012.3622 L 8678.125,553.36218 C 8679.4582,544.02936 8683.7916,535.69603 8691.125,528.36218 C 8698.4582,521.02938 8706.7915,516.36272 8716.125,514.36218 M 9438.9688,514.36218 C 9445.6353,513.02939 9452.6353,513.36272 9459.9688,515.36218 C 9463.9686,516.69605 9467.9686,518.36272 9471.9688,520.36218 C 9481.3019,526.36271 9487.9686,534.02937 9491.9688,543.36218 C 9493.9685,549.36269 9494.9685,559.69601 9494.9688,574.36218 L 9495.9688,594.36218 L 9542.9688,564.36218 C 9574.9685,543.69602 9593.9684,531.69604 9599.9688,528.36218 C 9614.6351,521.02938 9630.6351,516.36272 9647.9688,514.36218 L 9736.9688,515.36218 L 9737.9688,515.36218 C 9769.9683,520.69605 9796.9682,534.69603 9818.9688,557.36218 C 9841.6349,580.69599 9854.9682,608.69596 9858.9688,641.36218 L 9870.9688,1002.3622 L 9869.9688,1016.3622 C 9864.6348,1035.0289 9852.6349,1046.6955 9833.9688,1051.3622 C 9829.9682,1052.0288 9825.6349,1052.3622 9820.9688,1052.3622 C 9801.6349,1051.0289 9787.9683,1041.6955 9779.9688,1024.3622 C 9777.3016,1018.3622 9775.3016,990.36224 9773.9688,940.36218 C 9773.3016,932.3623 9771.9683,896.02901 9769.9688,831.36218 C 9765.9683,712.02919 9763.6349,650.69592 9762.9688,647.36218 C 9759.6349,630.02927 9749.3016,618.36262 9731.9688,612.36218 L 9725.9688,610.36218 L 9690.9688,610.36218 C 9664.9684,610.36262 9648.9684,611.69596 9642.9688,614.36218 C 9640.3017,615.69595 9614.9684,631.69594 9566.9688,662.36218 L 9495.9688,708.36218 L 9494.9688,860.36218 C 9494.9685,964.36227 9493.3019,1019.3622 9489.9688,1025.3622 C 9485.3019,1035.3622 9478.3019,1042.6955 9468.9688,1047.3622 C 9459.6352,1051.3622 9450.6353,1053.0288 9441.9688,1052.3622 C 9438.6353,1051.6955 9434.9686,1050.6955 9430.9688,1049.3622 C 9424.9686,1047.3622 9419.302,1043.6955 9413.9688,1038.3622 C 9406.6353,1031.0289 9401.9686,1022.3622 9399.9688,1012.3622 L 9399.9688,553.36218 C 9401.9686,544.02936 9406.6353,535.69603 9413.9688,528.36218 C 9421.302,521.02938 9429.6353,516.36272 9438.9688,514.36218 M 10274.812,514.36218 L 10352.812,514.36218 C 10400.812,514.36272 10426.812,514.69605 10430.812,515.36218 C 10440.812,516.69605 10450.145,519.02938 10458.812,522.36218 C 10474.145,528.36271 10487.479,535.69603 10498.812,544.36218 C 10521.479,563.696 10536.479,577.02932 10543.812,584.36218 C 10567.812,607.69596 10581.812,636.3626 10585.812,670.36218 C 10586.479,675.69589 10586.812,713.36252 10586.812,783.36218 C 10586.812,854.02905 10586.479,892.36234 10585.812,898.36218 C 10581.145,931.02897 10567.145,959.02894 10543.812,982.36218 C 10536.479,989.69558 10521.479,1002.6956 10498.812,1021.3622 C 10482.145,1034.6955 10462.479,1044.0289 10439.812,1049.3622 C 10429.812,1051.3622 10400.145,1052.3622 10350.812,1052.3622 C 10301.479,1052.3622 10271.479,1051.3622 10260.812,1049.3622 C 10240.146,1044.6955 10221.146,1035.6955 10203.812,1022.3622 C 10181.812,1005.0289 10165.146,990.36224 10153.812,978.36218 C 10131.812,955.69561 10119.146,928.02897 10115.812,895.36218 C 10115.146,890.69568 10114.812,853.02905 10114.812,782.36218 C 10114.812,712.36252 10115.146,674.36256 10115.812,668.36218 C 10119.812,637.02926 10132.479,610.02929 10153.812,587.36218 C 10166.479,574.02933 10183.479,559.36268 10204.812,543.36218 C 10224.812,528.02937 10248.146,518.36272 10274.812,514.36218 M 10421.812,611.36218 C 10419.812,610.69596 10396.479,610.02929 10351.812,609.36218 C 10305.812,609.36263 10280.479,610.36262 10275.812,612.36218 C 10270.479,614.36262 10265.812,616.69595 10261.812,619.36218 L 10240.812,638.36218 C 10224.812,651.69592 10215.479,662.69591 10212.812,671.36218 L 10210.812,676.36218 L 10210.812,782.36218 C 10210.812,855.69571 10212.146,895.02901 10214.812,900.36218 C 10218.146,907.02899 10227.812,917.02898 10243.812,930.36218 C 10257.812,942.36229 10266.479,949.36229 10269.812,951.36218 C 10276.479,954.69561 10291.146,956.36228 10313.812,956.36218 C 10315.812,956.36228 10328.146,956.36228 10350.812,956.36218 C 10397.479,956.36228 10423.479,955.02895 10428.812,952.36218 C 10433.479,950.36228 10443.479,942.69563 10458.812,929.36218 C 10475.479,915.36232 10485.479,904.029 10488.812,895.36218 L 10490.812,889.36218 L 10490.812,783.36218 C 10490.812,713.36252 10490.479,677.02922 10489.812,674.36218 C 10487.812,667.6959 10484.812,661.69591 10480.812,656.36218 L 10435.812,617.36218 C 10431.812,614.69595 10427.145,612.69596 10421.812,611.36218 M 10865.656,495.36218 L 10885.656,494.36218 C 10886.323,494.36274 10887.323,494.69607 10888.656,495.36218 C 10906.656,499.36274 10918.323,510.69606 10923.656,529.36218 C 10924.323,532.02937 10924.656,539.02936 10924.656,550.36218 L 10925.656,567.36218 L 10944.656,547.36218 C 10957.323,534.69603 10965.323,527.02937 10968.656,524.36218 C 10991.323,507.02939 11016.656,497.0294 11044.656,494.36218 L 11097.656,495.36218 C 11118.989,498.69607 11137.989,505.69606 11154.656,516.36218 C 11160.656,521.02938 11170.656,529.36271 11184.656,541.36218 C 11231.989,582.02932 11257.656,604.36263 11261.656,608.36218 C 11282.322,629.69594 11295.322,655.69591 11300.656,686.36218 C 11301.322,691.02921 11301.656,723.36251 11301.656,783.36218 L 11301.656,873.36218 L 11299.656,881.36218 C 11294.322,911.36232 11281.989,936.69563 11262.656,957.36218 L 11166.656,1040.3622 C 11145.322,1057.6955 11120.656,1068.0288 11092.656,1071.3622 L 11041.656,1071.3622 C 11014.989,1068.0288 10990.656,1058.0288 10968.656,1041.3622 C 10965.323,1038.6955 10957.323,1031.0289 10944.656,1018.3622 L 10924.656,999.36218 L 10924.656,1106.3622 C 10924.656,1180.3621 10922.989,1220.362 10919.656,1226.3622 C 10914.989,1236.362 10907.989,1243.6953 10898.656,1248.3622 C 10891.989,1251.6953 10884.989,1253.362 10877.656,1253.3622 C 10869.656,1253.362 10862.323,1251.6953 10855.656,1248.3622 C 10846.323,1243.6953 10839.323,1236.362 10834.656,1226.3622 C 10832.656,1223.0287 10831.323,1220.0287 10830.656,1217.3622 C 10829.989,1214.6954 10829.656,1100.0288 10829.656,873.36218 L 10829.656,534.36218 L 10830.656,529.36218 C 10835.989,510.69606 10847.656,499.36274 10865.656,495.36218 M 11089.656,591.36218 L 11048.656,590.36218 C 11041.323,591.69598 11034.989,594.36264 11029.656,598.36218 L 10935.656,692.36218 C 10932.323,697.0292 10929.656,702.0292 10927.656,707.36218 L 10925.656,713.36218 L 10925.656,780.36218 L 10925.656,852.36218 C 10926.989,859.02904 10929.323,865.02904 10932.656,870.36218 L 11025.656,964.36218 L 11027.656,965.36218 C 11032.989,970.02893 11038.656,973.02893 11044.656,974.36218 C 11047.989,975.69559 11055.656,976.36226 11067.656,976.36218 C 11078.989,976.36226 11086.323,975.69559 11089.656,974.36218 C 11096.323,972.36226 11111.323,961.69561 11134.656,942.36218 C 11137.323,939.69563 11141.656,935.69563 11147.656,930.36218 C 11176.989,905.69566 11192.656,892.02901 11194.656,889.36218 C 11198.656,884.69568 11201.656,879.02902 11203.656,872.36218 L 11205.656,867.36218 L 11205.656,783.36218 C 11205.656,727.36251 11205.322,698.0292 11204.656,695.36218 C 11202.656,689.36255 11199.989,683.69588 11196.656,678.36218 L 11103.656,598.36218 C 11099.656,595.02931 11094.989,592.69598 11089.656,591.36218 M 11704.5,514.36218 C 11709.166,514.36272 11726.166,514.36272 11755.5,514.36218 L 11809.5,515.36218 C 11835.5,518.69605 11858.5,527.69604 11878.5,542.36218 C 11881.833,545.02936 11889.5,551.69602 11901.5,562.36218 L 11920.5,578.36218 L 11920.5,566.36218 C 11921.166,557.02934 11922.5,549.36269 11924.5,543.36218 C 11927.833,534.02937 11934.5,526.36271 11944.5,520.36218 C 11949.833,517.02938 11955.833,515.02939 11962.5,514.36218 C 11969.166,513.69605 11975.833,514.36272 11982.5,516.36218 C 11985.833,517.02938 11989.166,518.36272 11992.5,520.36218 C 11999.833,524.36271 12005.499,530.02937 12009.5,537.36218 C 12012.833,542.69603 12014.833,548.36269 12015.5,554.36218 L 12016.5,886.36218 C 12016.499,1105.0288 12016.166,1215.362 12015.5,1217.3622 C 12010.833,1232.0287 12002.166,1242.362 11989.5,1248.3622 C 11982.833,1251.6953 11975.833,1253.362 11968.5,1253.3622 C 11961.166,1253.362 11954.166,1251.6953 11947.5,1248.3622 C 11937.499,1243.6953 11930.166,1236.362 11925.5,1226.3622 C 11922.833,1220.362 11921.166,1206.362 11920.5,1184.3622 C 11920.5,1178.3621 11920.5,1150.6954 11920.5,1101.3622 C 11920.5,1026.6955 11920.5,989.02891 11920.5,988.36218 C 11920.5,988.36225 11914.166,993.36224 11901.5,1003.3622 C 11888.833,1014.0289 11881.5,1020.3622 11879.5,1022.3622 C 11858.833,1038.3622 11834.833,1048.0289 11807.5,1051.3622 L 11705.5,1051.3622 C 11678.166,1048.0289 11654.166,1038.3622 11633.5,1022.3622 C 11611.5,1005.0289 11594.833,990.36224 11583.5,978.36218 C 11561.5,955.69561 11548.5,928.02897 11544.5,895.36218 L 11545.5,670.36218 C 11549.5,637.69593 11562.167,610.02929 11583.5,587.36218 C 11594.833,575.36266 11611.5,560.69601 11633.5,543.36218 C 11654.166,527.36271 11677.833,517.69605 11704.5,514.36218 M 11800.5,610.36218 L 11711.5,610.36218 C 11703.5,611.69596 11690.833,620.02928 11673.5,635.36218 C 11657.5,649.36259 11647.833,659.36258 11644.5,665.36218 C 11641.833,671.36256 11640.5,687.69588 11640.5,714.36218 L 11640.5,783.36218 C 11640.5,856.02905 11641.833,895.02901 11644.5,900.36218 C 11647.833,907.02899 11657.5,917.02898 11673.5,930.36218 C 11690.166,945.02896 11701.833,953.36228 11708.5,955.36218 L 11713.5,956.36218 L 11756.5,956.36218 C 11787.833,956.36228 11806.5,954.69561 11812.5,951.36218 C 11816.5,950.02895 11829.833,939.3623 11852.5,919.36218 L 11895.5,883.36218 C 11907.5,872.6957 11915.166,863.02904 11918.5,854.36218 L 11920.5,849.36218 L 11920.5,783.36218 L 11920.5,717.36218 L 11918.5,713.36218 C 11916.5,706.0292 11913.5,700.0292 11909.5,695.36218 L 11817.5,617.36218 C 11812.166,613.36262 11806.5,611.02929 11800.5,610.36218 M 12298.344,514.36218 C 12305.01,513.02939 12312.01,513.36272 12319.344,515.36218 C 12324.01,516.69605 12328.01,518.36272 12331.344,520.36218 C 12338.01,524.36271 12343.677,530.02937 12348.344,537.36218 C 12349.677,540.02936 12350.677,542.69603 12351.344,545.36218 C 12353.344,550.69602 12354.344,565.02934 12354.344,588.36218 C 12354.344,608.36263 12354.677,618.36262 12355.344,618.36218 C 12355.344,618.36262 12373.677,602.69597 12410.344,571.36218 C 12446.343,540.02936 12466.01,523.36271 12469.344,521.36218 C 12473.343,518.69605 12478.343,516.69605 12484.344,515.36218 C 12486.343,514.69605 12506.343,514.36272 12544.344,514.36218 C 12585.677,514.36272 12611.677,515.36272 12622.344,517.36218 C 12666.343,528.02937 12698.01,554.02935 12717.344,595.36218 C 12724.01,608.69596 12728.343,623.02928 12730.344,638.36218 L 12730.344,690.36218 L 12730.344,691.36218 C 12726.343,711.36252 12714.677,723.69584 12695.344,728.36218 L 12683.344,730.36218 C 12661.343,730.3625 12646.343,720.02918 12638.344,699.36218 C 12637.677,698.0292 12637.343,696.69587 12637.344,695.36218 C 12636.677,692.02921 12636.01,683.36255 12635.344,669.36218 L 12635.344,647.36218 L 12633.344,641.36218 C 12631.343,636.02927 12628.677,631.02927 12625.344,626.36218 C 12621.343,621.69595 12616.01,617.69595 12609.344,614.36218 C 12596.677,611.69596 12578.343,610.36262 12554.344,610.36218 L 12512.344,610.36218 L 12433.344,677.36218 L 12354.344,744.36218 L 12354.344,878.36218 C 12354.344,970.36226 12352.677,1019.3622 12349.344,1025.3622 C 12344.677,1035.3622 12337.677,1042.6955 12328.344,1047.3622 C 12319.01,1051.3622 12310.01,1053.0288 12301.344,1052.3622 C 12298.01,1051.6955 12294.344,1050.6955 12290.344,1049.3622 C 12284.344,1047.3622 12278.677,1043.6955 12273.344,1038.3622 C 12266.01,1031.0289 12261.344,1022.3622 12259.344,1012.3622 L 12259.344,553.36218 C 12261.344,544.02936 12266.01,535.69603 12273.344,528.36218 C 12280.677,521.02938 12289.01,516.36272 12298.344,514.36218 M 13092.188,514.36218 L 13324.188,514.36218 C 13359.52,518.36272 13389.187,533.02937 13413.188,558.36218 C 13425.187,570.36266 13432.187,581.36265 13434.188,591.36218 L 13435.188,611.36218 C 13434.52,612.69596 13434.187,613.69595 13434.188,614.36218 C 13432.854,618.36262 13431.52,621.36261 13430.188,623.36218 C 13421.52,641.36259 13407.52,650.02925 13388.188,649.36218 L 13382.188,649.36218 C 13368.854,647.36259 13357.52,640.69593 13348.188,629.36218 C 13341.52,620.69595 13332.854,614.69595 13322.188,611.36218 L 13317.188,610.36218 L 13211.188,609.36218 L 13101.188,610.36218 C 13092.521,612.36262 13085.854,617.36262 13081.188,625.36218 L 13079.188,634.36218 C 13079.187,637.69593 13079.854,640.36259 13081.188,642.36218 C 13083.187,648.36259 13086.521,652.69592 13091.188,655.36218 C 13093.187,656.69591 13123.187,670.36256 13181.188,696.36218 C 13305.854,751.02915 13371.854,780.69579 13379.188,785.36218 C 13403.854,802.0291 13421.854,823.02908 13433.188,848.36218 C 13443.854,873.02903 13447.52,897.69567 13444.188,922.36218 C 13443.52,928.36231 13442.52,934.3623 13441.188,940.36218 C 13429.854,985.69558 13403.187,1018.3622 13361.188,1038.3622 C 13351.187,1043.0289 13340.854,1046.6955 13330.188,1049.3622 C 13320.187,1051.3622 13278.52,1052.3622 13205.188,1052.3622 C 13137.187,1052.3622 13100.521,1051.6955 13095.188,1050.3622 C 13081.854,1048.3622 13067.187,1044.0289 13051.188,1037.3622 C 13032.521,1030.0289 13015.521,1020.3622 13000.188,1008.3622 C 12988.854,999.0289 12981.521,991.02891 12978.188,984.36218 C 12974.187,976.36226 12972.854,967.36227 12974.188,957.36218 C 12974.854,952.69562 12976.521,948.02895 12979.188,943.36218 C 12987.187,925.36231 13001.187,916.36232 13021.188,916.36218 C 13021.187,916.36232 13023.187,916.36232 13027.188,916.36218 C 13036.521,917.69565 13046.187,922.36231 13056.188,930.36218 C 13066.187,939.02896 13076.521,945.36229 13087.188,949.36218 C 13096.521,952.69562 13104.521,955.02895 13111.188,956.36218 L 13212.188,956.36218 L 13308.188,956.36218 L 13313.188,955.36218 C 13327.854,950.69562 13338.187,941.69563 13344.188,928.36218 C 13351.52,915.02899 13351.854,901.36233 13345.188,887.36218 C 13341.854,879.36236 13336.854,872.6957 13330.188,867.36218 C 13327.52,865.36237 13325.187,864.02904 13323.188,863.36218 C 13320.52,862.02904 13255.854,833.69573 13129.188,778.36218 C 13079.854,756.36248 13053.521,744.36249 13050.188,742.36218 C 13038.854,737.02916 13028.187,729.02917 13018.188,718.36218 C 12998.854,699.0292 12987.521,675.69589 12984.188,648.36218 C 12981.521,627.69594 12984.521,607.69596 12993.188,588.36218 C 12997.854,577.69599 13003.854,568.02933 13011.188,559.36218 C 13032.521,534.02937 13059.521,519.02938 13092.188,514.36218 M 13821.031,353.36218 L 13843.031,354.36218 C 13845.031,355.02955 13848.031,356.36288 13852.031,358.36218 C 13861.364,363.02954 13868.364,370.02953 13873.031,379.36218 C 13876.364,386.02952 13878.031,400.69617 13878.031,423.36218 C 13878.031,423.36281 13878.031,433.3628 13878.031,453.36218 L 13878.031,513.36218 L 13976.031,514.36218 L 14074.031,514.36218 L 14078.031,515.36218 C 14092.031,520.02938 14102.031,528.36271 14108.031,540.36218 C 14111.364,546.36269 14113.031,553.36268 14113.031,561.36218 C 14113.031,569.36267 14111.364,576.69599 14108.031,583.36218 C 14102.031,595.36264 14092.031,603.69596 14078.031,608.36218 L 14074.031,609.36218 L 13976.031,609.36218 L 13878.031,609.36218 L 13879.031,764.36218 L 13879.031,919.36218 L 13881.031,924.36218 C 13883.698,933.69563 13888.364,941.02896 13895.031,946.36218 C 13899.698,949.69562 13904.698,952.36228 13910.031,954.36218 L 13916.031,956.36218 L 13971.031,956.36218 C 14010.364,956.36228 14033.364,954.69561 14040.031,951.36218 C 14052.697,944.69562 14061.031,934.02897 14065.031,919.36218 C 14067.697,908.02899 14071.697,899.029 14077.031,892.36218 C 14087.031,881.02902 14100.697,875.69569 14118.031,876.36218 C 14138.697,879.02902 14152.031,890.02901 14158.031,909.36218 C 14160.697,916.69565 14161.364,923.69564 14160.031,930.36218 C 14154.697,967.02893 14137.364,997.0289 14108.031,1020.3622 C 14089.364,1035.6955 14068.697,1045.3622 14046.031,1049.3622 C 14036.031,1051.3622 14012.031,1052.3622 13974.031,1052.3622 L 13967.031,1052.3622 L 13909.031,1052.3622 L 13901.031,1050.3622 C 13869.698,1044.3622 13843.698,1030.6955 13823.031,1009.3622 C 13801.031,986.69558 13788.031,959.36228 13784.031,927.36218 C 13783.364,921.36231 13783.031,867.02903 13783.031,764.36218 L 13783.031,609.36218 L 13755.031,609.36218 C 13737.031,609.36263 13726.698,609.02929 13724.031,608.36218 C 13702.031,599.0293 13690.364,583.36265 13689.031,561.36218 C 13689.031,539.3627 13700.698,524.02938 13724.031,515.36218 C 13726.698,514.69605 13737.031,514.36272 13755.031,514.36218 L 13783.031,513.36218 L 13783.031,453.36218 C 13783.031,410.69616 13784.698,386.02952 13788.031,379.36218 C 13794.698,365.36287 13805.698,356.69621 13821.031,353.36218 M 14443.875,514.36218 L 14463.875,515.36218 C 14481.208,520.69605 14492.541,532.3627 14497.875,550.36218 C 14498.541,553.69601 14500.875,615.02929 14504.875,734.36218 C 14508.875,854.36238 14511.208,916.02899 14511.875,919.36218 C 14515.208,936.69563 14525.541,948.36229 14542.875,954.36218 L 14548.875,956.36218 L 14583.875,956.36218 C 14609.875,956.36228 14625.541,955.02895 14630.875,952.36218 C 14634.208,951.02895 14659.875,935.02897 14707.875,904.36218 L 14779.875,857.36218 L 14779.875,707.36218 C 14779.875,604.69596 14780.875,550.69602 14782.875,545.36218 C 14782.875,545.36269 14784.208,542.69603 14786.875,537.36218 C 14790.875,530.02937 14796.541,524.36271 14803.875,520.36218 C 14809.208,517.02938 14815.208,515.02939 14821.875,514.36218 C 14828.541,513.69605 14835.208,514.36272 14841.875,516.36218 C 14845.208,517.02938 14848.541,518.36272 14851.875,520.36218 C 14859.208,524.36271 14864.874,530.02937 14868.875,537.36218 C 14872.208,542.69603 14874.208,548.36269 14874.875,554.36218 L 14875.875,786.36218 C 14875.874,937.69563 14875.541,1014.3622 14874.875,1016.3622 C 14872.208,1023.6955 14868.874,1029.6955 14864.875,1034.3622 C 14858.208,1043.0289 14849.874,1048.3622 14839.875,1050.3622 C 14831.874,1052.3622 14823.874,1052.3622 14815.875,1050.3622 L 14803.875,1045.3622 C 14793.875,1040.0289 14787.208,1032.3622 14783.875,1022.3622 C 14781.875,1017.0289 14780.541,1006.6956 14779.875,991.36218 L 14779.875,971.36218 L 14731.875,1002.3622 C 14693.208,1027.0289 14668.208,1041.0289 14656.875,1044.3622 C 14646.875,1047.6955 14636.875,1050.0289 14626.875,1051.3622 L 14537.875,1051.3622 L 14536.875,1051.3622 C 14504.208,1045.3622 14477.208,1031.3622 14455.875,1009.3622 C 14433.208,985.36225 14419.875,957.02894 14415.875,924.36218 L 14403.875,564.36218 C 14403.875,555.69601 14405.208,548.36269 14407.875,542.36218 C 14414.542,527.02937 14426.542,517.69605 14443.875,514.36218 M 15157.719,514.36218 C 15164.385,513.02939 15171.385,513.36272 15178.719,515.36218 C 15183.385,516.69605 15187.385,518.36272 15190.719,520.36218 C 15197.385,524.36271 15203.052,530.02937 15207.719,537.36218 C 15209.052,540.02936 15210.052,542.69603 15210.719,545.36218 C 15212.719,550.69602 15213.719,567.36267 15213.719,595.36218 L 15213.719,632.36218 L 15283.719,792.36218 C 15330.385,899.029 15354.052,952.36228 15354.719,952.36218 C 15354.718,952.36228 15378.052,899.029 15424.719,792.36218 L 15494.719,632.36218 L 15494.719,595.36218 C 15494.718,567.36267 15495.718,550.69602 15497.719,545.36218 C 15499.718,539.3627 15503.718,533.69603 15509.719,528.36218 C 15515.052,523.02938 15520.718,519.02938 15526.719,516.36218 C 15533.385,514.36272 15540.385,513.69605 15547.719,514.36218 C 15551.718,514.36272 15555.385,515.02939 15558.719,516.36218 C 15564.718,519.02938 15570.385,523.02938 15575.719,528.36218 C 15581.718,533.69603 15585.718,539.3627 15587.719,545.36218 C 15589.718,550.69602 15590.718,569.696 15590.719,602.36218 C 15590.718,635.02927 15589.385,654.69591 15586.719,661.36218 L 15424.719,1030.3622 C 15420.052,1037.0289 15414.718,1042.0289 15408.719,1045.3622 C 15404.052,1048.0289 15398.718,1050.0289 15392.719,1051.3622 L 15316.719,1051.3622 C 15310.718,1050.0289 15305.385,1048.0289 15300.719,1045.3622 C 15294.052,1042.0289 15288.718,1037.0289 15284.719,1030.3622 L 15122.719,661.36218 C 15120.052,654.69591 15118.719,635.02927 15118.719,602.36218 C 15118.719,569.696 15119.719,550.69602 15121.719,545.36218 C 15123.719,539.3627 15127.385,533.69603 15132.719,528.36218 C 15140.052,521.02938 15148.385,516.36272 15157.719,514.36218 M 15862.562,514.36218 C 15873.229,512.36272 15883.896,514.36272 15894.562,520.36218 C 15899.896,523.02938 15904.229,526.69604 15907.562,531.36218 C 15912.229,536.69603 15915.562,542.69603 15917.562,549.36218 C 15918.229,552.02935 15918.562,556.36268 15918.562,562.36218 C 15919.229,568.36267 15920.896,615.36262 15923.562,703.36218 L 15928.562,835.36218 L 15943.562,886.36218 L 15958.562,937.36218 C 15958.562,937.3623 15968.896,919.36232 15989.562,883.36218 L 16021.562,830.36218 L 16021.562,774.36218 C 16021.562,734.3625 16022.562,711.36252 16024.562,705.36218 C 16029.229,694.02921 16036.896,685.69588 16047.562,680.36218 C 16054.896,677.02922 16061.895,675.36256 16068.562,675.36218 C 16075.895,675.36256 16083.229,677.02922 16090.562,680.36218 C 16101.229,685.69588 16108.895,694.02921 16113.562,705.36218 C 16115.562,711.36252 16116.562,734.3625 16116.562,774.36218 L 16116.562,830.36218 L 16147.562,883.36218 C 16168.229,918.69565 16178.895,936.69563 16179.562,937.36218 L 16194.562,886.36218 L 16209.562,835.36218 L 16214.562,703.36218 C 16217.229,615.36262 16218.895,568.36267 16219.562,562.36218 C 16220.229,553.69601 16221.895,546.36269 16224.562,540.36218 C 16229.229,531.02937 16236.562,523.69604 16246.562,518.36218 C 16258.562,512.36272 16270.895,512.02939 16283.562,517.36218 C 16290.229,519.36272 16296.229,523.36271 16301.562,529.36218 C 16308.895,536.69603 16313.229,545.36269 16314.562,555.36218 L 16310.562,700.36218 C 16307.229,793.69577 16305.229,842.36239 16304.562,846.36218 C 16304.562,850.36238 16296.229,880.36235 16279.562,936.36218 C 16263.562,992.36224 16254.562,1022.0289 16252.562,1025.3622 C 16246.562,1038.0289 16236.562,1046.3622 16222.562,1050.3622 C 16219.895,1051.6955 16208.895,1052.3622 16189.562,1052.3622 L 16156.562,1051.3622 C 16145.229,1050.0289 16135.895,1045.0289 16128.562,1036.3622 C 16125.229,1033.6955 16114.562,1016.6956 16096.562,985.36218 C 16078.562,954.02895 16069.229,938.3623 16068.562,938.36218 C 16068.562,938.3623 16059.562,954.02895 16041.562,985.36218 L 16014.562,1032.3622 L 16008.562,1038.3622 C 16003.229,1043.6955 15997.562,1047.3622 15991.562,1049.3622 C 15985.562,1051.3622 15972.562,1052.3622 15952.562,1052.3622 L 15948.562,1052.3622 C 15929.229,1052.3622 15918.229,1051.6955 15915.562,1050.3622 C 15901.562,1046.3622 15891.562,1038.0289 15885.562,1025.3622 C 15883.562,1022.0289 15874.562,992.36224 15858.562,936.36218 C 15841.896,880.36235 15833.562,850.36238 15833.562,846.36218 C 15832.896,842.36239 15830.896,793.69577 15827.562,700.36218 C 15824.229,603.69596 15823.562,552.36268 15825.562,546.36218 C 15831.562,529.02937 15843.896,518.36272 15862.562,514.36218 M 16598.406,514.36218 L 16617.406,515.36218 C 16626.739,518.02938 16634.406,522.36271 16640.406,528.36218 C 16642.406,530.3627 16666.739,559.69601 16713.406,616.36218 C 16760.073,672.36256 16783.739,700.36253 16784.406,700.36218 C 16785.073,699.69587 16808.739,671.36256 16855.406,615.36218 C 16902.072,559.36268 16926.072,530.3627 16927.406,528.36218 C 16931.406,524.36271 16936.406,521.02938 16942.406,518.36218 C 16961.739,509.02939 16979.406,512.02939 16995.406,527.36218 C 17004.072,536.02937 17008.739,546.36269 17009.406,558.36218 L 17007.406,576.36218 L 17003.406,584.36218 C 17002.072,587.02931 16975.739,619.69595 16924.406,682.36218 C 16872.406,745.02916 16846.406,776.69579 16846.406,777.36218 C 16846.406,777.36246 16873.406,810.02909 16927.406,875.36218 C 16980.739,940.02896 17008.406,973.69559 17010.406,976.36218 C 17019.739,989.02891 17022.406,1003.0289 17018.406,1018.3622 C 17015.739,1026.3622 17011.072,1033.3622 17004.406,1039.3622 C 16991.739,1051.3622 16976.739,1055.0288 16959.406,1050.3622 L 16943.406,1042.3622 L 16936.406,1036.3622 C 16934.406,1033.6955 16908.406,1002.3622 16858.406,942.36218 L 16784.406,852.36218 L 16780.406,855.36218 L 16704.406,948.36218 C 16655.073,1007.6956 16629.406,1038.3622 16627.406,1040.3622 C 16612.073,1054.3622 16594.739,1056.6955 16575.406,1047.3622 C 16564.739,1042.6955 16557.073,1035.0289 16552.406,1024.3622 C 16547.739,1013.6956 16546.739,1003.0289 16549.406,992.36218 C 16550.739,986.36225 16553.406,981.02892 16557.406,976.36218 C 16558.739,973.69559 16586.406,940.02896 16640.406,875.36218 C 16693.739,810.69576 16720.739,778.02912 16721.406,777.36218 C 16721.406,776.69579 16695.406,745.02916 16643.406,682.36218 C 16592.073,619.69595 16565.739,587.02931 16564.406,584.36218 C 16559.739,576.36266 16557.739,567.696 16558.406,558.36218 C 16559.073,551.69602 16560.406,545.69602 16562.406,540.36218 C 16569.739,525.69604 16581.739,517.02938 16598.406,514.36218 M 17302.25,514.36218 C 17308.917,513.02939 17315.917,513.36272 17323.25,515.36218 C 17327.916,516.69605 17331.916,518.36272 17335.25,520.36218 C 17341.916,524.36271 17347.583,530.02937 17352.25,537.36218 C 17353.583,540.02936 17354.583,542.69603 17355.25,545.36218 C 17357.25,550.69602 17358.25,567.36267 17358.25,595.36218 L 17358.25,632.36218 L 17421.25,774.36218 L 17483.25,916.36218 L 17499.25,916.36218 L 17515.25,916.36218 L 17577.25,774.36218 L 17639.25,632.36218 L 17639.25,595.36218 C 17639.25,567.36267 17640.25,550.69602 17642.25,545.36218 C 17644.25,539.3627 17648.25,533.69603 17654.25,528.36218 C 17659.583,523.02938 17665.249,519.02938 17671.25,516.36218 C 17677.916,514.36272 17684.916,513.69605 17692.25,514.36218 C 17696.249,514.36272 17699.916,515.02939 17703.25,516.36218 C 17709.249,519.02938 17714.916,523.02938 17720.25,528.36218 C 17726.249,533.69603 17730.249,539.3627 17732.25,545.36218 C 17734.249,550.69602 17735.249,569.696 17735.25,602.36218 C 17735.249,635.02927 17733.916,654.69591 17731.25,661.36218 L 17481.25,1230.3622 C 17475.25,1239.6953 17466.916,1246.362 17456.25,1250.3622 C 17450.916,1252.362 17422.916,1253.362 17372.25,1253.3622 L 17302.25,1253.3622 L 17298.25,1252.3622 C 17276.25,1245.0287 17264.583,1229.362 17263.25,1205.3622 C 17263.25,1183.3621 17274.917,1168.0287 17298.25,1159.3622 C 17300.917,1158.6954 17319.917,1158.0287 17355.25,1157.3622 L 17409.25,1157.3622 L 17440.25,1085.3622 C 17461.583,1037.3622 17472.25,1013.0289 17472.25,1012.3622 C 17472.25,1012.3622 17468.25,1012.3622 17460.25,1012.3622 C 17446.25,1012.3622 17435.25,1010.0289 17427.25,1005.3622 C 17419.916,1001.3622 17414.25,995.69557 17410.25,988.36218 L 17266.25,659.36218 C 17264.25,653.36258 17263.25,634.3626 17263.25,602.36218 C 17263.25,569.696 17264.25,550.69602 17266.25,545.36218 C 17268.25,539.3627 17271.917,533.69603 17277.25,528.36218 C 17284.583,521.02938 17292.917,516.36272 17302.25,514.36218 M 18041.094,514.36218 L 18227.094,514.36218 C 18349.093,514.36272 18411.427,514.69605 18414.094,515.36218 C 18421.427,517.36272 18427.427,520.36271 18432.094,524.36218 C 18437.427,529.02937 18441.76,534.3627 18445.094,540.36218 C 18447.76,547.02935 18449.427,560.02934 18450.094,579.36218 L 18448.094,614.36218 L 18447.094,618.36218 C 18445.093,623.69594 18442.093,628.69594 18438.094,633.36218 C 18436.093,635.3626 18379.76,689.69588 18269.094,796.36218 L 18103.094,956.36218 L 18256.094,956.36218 C 18358.76,957.02894 18411.093,957.69561 18413.094,958.36218 C 18421.76,960.36227 18428.76,964.02894 18434.094,969.36218 C 18444.093,979.36226 18449.093,991.02891 18449.094,1004.3622 C 18449.093,1025.0289 18439.76,1039.6955 18421.094,1048.3622 C 18417.76,1049.6955 18414.093,1050.6955 18410.094,1051.3622 L 18017.094,1051.3622 C 18007.76,1049.3622 17999.427,1045.0289 17992.094,1038.3622 C 17984.76,1031.0289 17980.094,1022.3622 17978.094,1012.3622 L 17978.094,955.36218 C 17980.094,946.69562 17983.76,939.3623 17989.094,933.36218 C 17991.094,930.69564 18047.76,876.36236 18159.094,770.36218 L 18325.094,610.36218 L 18182.094,609.36218 L 18040.094,609.36218 L 18035.094,608.36218 C 18014.427,601.69597 18003.094,588.02931 18001.094,567.36218 C 18000.427,562.02934 18000.76,556.36268 18002.094,550.36218 C 18006.094,532.3627 18017.427,520.69605 18036.094,515.36218 C 18038.094,514.69605 18039.76,514.36272 18041.094,514.36218"
       id="text2383" />
  </g>
</svg>
